<?xml version="1.0"?>
<svg width="24" height="24" xmlns="http://www.w3.org/2000/svg" xmlns:svg="http://www.w3.org/2000/svg">
 <g class="layer">
  <title>Layer 1</title>
  <g id="SVGRepo_bgCarrier" stroke-width="0"/>
  <g id="SVGRepo_tracerCarrier" stroke-linecap="round" stroke-linejoin="round"/>
  <g id="SVGRepo_iconCarrier">
   <path d="m22,12c0,5.52 -4.48,10 -10,10c-5.52,0 -10,-4.48 -10,-10c0,-5.52 4.48,-10 10,-10c5.52,0 10,4.48 10,10z" fill="#ffffff" id="svg_1"/>
   <path d="m8.97,8.97c0.29,-0.29 0.77,-0.29 1.06,0l1.97,1.97l1.97,-1.97c0.29,-0.29 0.77,-0.29 1.06,0c0.29,0.29 0.29,0.77 0,1.06l-1.97,1.97l1.97,1.97c0.29,0.29 0.29,0.77 0,1.06c-0.29,0.29 -0.77,0.29 -1.06,0l-1.97,-1.97l-1.97,1.97c-0.29,0.29 -0.77,0.29 -1.06,0c-0.29,-0.29 -0.29,-0.77 0,-1.06l1.97,-1.97l-1.97,-1.97c-0.29,-0.29 -0.29,-0.77 0,-1.06z" fill="#1C274C" id="svg_2"/>
  </g>
 </g>
</svg>