<?xml version="1.0"?>
<svg width="512" height="512" xmlns="http://www.w3.org/2000/svg" xmlns:svg="http://www.w3.org/2000/svg" version="1.1" xml:space="preserve">
<path d="m0,256c0,141.16 114.84,256 256,256l0,-512c-141.16,0 -256,114.84 -256,256z" fill="#ffffff" id="svg_1" transform="matrix(1 0 0 1 0 0)"/>
<path d="m256,0l0,512c141.16,0 256,-114.84 256,-256s-114.84,-256 -256,-256z" fill="#ffffff" id="svg_2" transform="matrix(1 0 0 1 0 0)"/>
<path d="m225.91,115.42c-9.09,-9.08 -23.82,-9.09 -32.91,0c-9.09,9.09 -9.09,23.83 0,32.92l107.66,107.66l-107.66,107.67c-9.09,9.09 -9.09,23.82 0,32.91c4.54,4.54 10.5,6.81 16.45,6.81c5.96,0 11.92,-2.27 16.46,-6.81l124.12,-124.13c4.37,-4.36 6.82,-10.28 6.82,-16.45s-2.45,-12.1 -6.82,-16.46l-124.12,-124.12z" fill="#000000" id="svg_3"/>
</svg>